<?xml version="1.0" encoding="UTF-8"?>
<svg id="Layer_1" xmlns="http://www.w3.org/2000/svg" version="1.1" xmlns:xlink="http://www.w3.org/1999/xlink" viewBox="0 0 595.28 154.52">
  <!-- Generator: Adobe Illustrator 29.8.4, SVG Export Plug-In . SVG Version: 2.1.1 Build 6)  -->
  <defs>
    <style>
      .st0 {
        fill: url(#radial-gradient);
      }
    </style>
    <radialGradient id="radial-gradient" cx="222.05" cy="-39.68" fx="222.05" fy="-39.68" r="319.23" gradientUnits="userSpaceOnUse">
      <stop offset="0" stop-color="#9f692f"/>
      <stop offset=".76" stop-color="#d5af34"/>
      <stop offset="1" stop-color="#efbb71"/>
    </radialGradient>
  </defs>
  <path class="st0" d="M115.88,118.53c-2.09-3.41-2.09-13.49-2.64-35.59-.14-5.42-.14-8.2-.42-12.65-.28-4.52-1.32-7.93-6.47-10.01l-9.87-4.03c-3.13-1.25-4.03-4.1-2.71-6.53l6.47-12.03c-.63,3.13.7,5.01,4.52,6.6l7.16,3.06c4.03,1.74,6.81,2.64,6.33,9.25-1.39,18.84-2.99,48.46-2.36,61.94Z"/>
  <path class="st0" d="M154.67,55.2c0,5.42-12.17,21.41-12.51,33.79-6.12-2.29,4.1-13.7,4.1-20.16,0-3.82-.9-7.23-5.63-9.04l-9.11-3.55c-3.13-1.18-4.03-4.1-2.71-6.53l6.53-12.03c-.63,3.13.7,5.01,4.52,6.6l6.4,2.64c5.63,2.29,8.41,3.41,8.41,8.27Z"/>
  <path class="st0" d="M190.26,55.13l8.76-13.97c-.56,3.41,1.25,5.21,4.8,5.21h24.33c12.1,0,13.42,8.9,13.83,19.19.42,10.98-1.81,35.94-6.95,47.2-.76,1.67-1.11-1.18-1.11-1.18,3.82-8.27,6.12-26.07,4.24-39.49-1.6-11.61-12.72-11.61-17.73-11.61h-26.35c-2.16,0-5.21-1.32-3.82-5.35Z"/>
  <path class="st0" d="M273.06,118.53c-2.09-3.41-2.09-13.49-2.64-35.59-.14-5.42-.14-8.2-.42-12.65-.28-4.52-1.32-7.93-6.47-10.01l-9.87-4.03c-3.13-1.25-4.03-4.1-2.71-6.53l6.47-12.03c-.63,3.13.7,5.01,4.52,6.6l7.16,3.06c4.03,1.74,6.81,2.64,6.33,9.25-1.39,18.84-2.99,48.46-2.36,61.94Z"/>
  <path class="st0" d="M321.31,113.81l-24.19-.07c-8.13,0-9.45,2.64-12.79,5.28l8.55-12.79c2.36-3.55,5.42-6.53,12.17-6.53h21.62c3.62,0,9.11-1.53,12.24-5.21l-7.99,14.25c-1.46,2.64-5.07,5.07-9.59,5.07ZM307.61,55.83c9.73-.28,22.25,4.1,28.92,15.16,4.03,6.6,6.12,11.33,4.66,19.26,1.67-6.33,6.05-21.55.07-32.61-6.6-12.24-22.46-15.5-30.24-13.42-5.35,1.88-14.11,10.29-18.42,19.05-2.99,5.14-3.75,6.4-5.07,9.8-1.53,3.89-2.43,9.94,2.99,13.28,2.16,1.32,5.42,2.5,8.69,2.22,1.53-.14,4.24-.42,5.7-1.95l6.6-13.21c-.56,1.04-2.64,1.81-5.35,1.95-2.5.21-5.42,0-8.13-1.04-3.06-1.18-5.07-2.92-5.07-6.19,0-.63.07-1.39.21-2.22,1.04-5.14,6.19-10.08,14.46-10.08Z"/>
  <path class="st0" d="M407.17,55.2c0,5.42-12.17,21.41-12.51,33.79-6.12-2.29,4.1-13.7,4.1-20.16,0-3.82-.9-7.23-5.63-9.04l-9.11-3.55c-3.13-1.18-4.03-4.1-2.71-6.53l6.53-12.03c-.63,3.13.7,5.01,4.52,6.6l6.4,2.64c5.63,2.29,8.41,3.41,8.41,8.27Z"/>
  <path class="st0" d="M432.4,95.1c-.21-3.89-1.53-11.33-1.74-13.97-.42-4.73-.7-7.23-1.46-11.68-.76-4.52-2.22-7.58-7.3-9.73l-7.16-3.06c-2.92-1.25-4.03-4.1-2.71-6.53l6.47-12.17c-.63,3.13.83,4.73,4.52,6.6l3.82,1.95c3.48,1.81,5.35,2.09,5.14,8.69-.35,11.68.28,28.57.42,39.9ZM426.7,113.81h21.48c13.9,0,29.89-20.37,42.69-43.38-15.09,21.2-20.58,29.27-42.13,29.27h-15.64l-6.4,14.11ZM441.44,92.46c3.13-8.9,6.88-19.74,11.96-30.87-7.79-1.39-12.24-6.6-11.05-10.36l9.39-15.99c-5.49,10.71,6.05,12.44,9.73,12.44,2.64,0,5.28-.07,6.67-.76l-6.67,14.18c-5.28,1.95-15.22,20.65-20.23,32.54l.21-1.18ZM489.9,47.69c7.37.49,12.1-3.68,20.58-16.06l-12.03,20.44c-4.94,8.41-9.52,10.78-15.43,10.78-4.52,0-8.27-2.16-9.11-4.38l7.72-14.46s1.74,3.27,8.27,3.68Z"/>
</svg>